<svg width="168" height="13" viewBox="0 0 168 13" fill="none" xmlns="http://www.w3.org/2000/svg">
<path d="M16.084 12.7703V0.228027H17.226V12.7703H16.084Z" fill="white"/>
<path d="M28.7574 12.9885C26.6202 12.9885 25.0173 12.4526 23.9486 11.3809C22.88 10.3092 22.3457 8.68142 22.3457 6.49753C22.3457 5.08571 22.5896 3.89753 23.0774 2.93299C23.543 1.99204 24.3107 1.22491 25.2639 0.748006C26.2328 0.254799 27.4298 0.00819405 28.855 0.00819405C29.6673 -0.00292087 30.4774 0.0925313 31.2636 0.291981C31.9139 0.454735 32.5253 0.740055 33.0633 1.13185C33.5534 1.50025 33.9428 1.98086 34.197 2.53109C34.4713 3.15217 34.6055 3.82347 34.5906 4.49955H33.2786C33.2964 3.94757 33.1811 3.39922 32.9422 2.89854C32.7286 2.47998 32.409 2.12147 32.0137 1.8569C31.5871 1.5811 31.1095 1.38888 30.6076 1.29097C30.0315 1.17153 29.4439 1.11323 28.855 1.11709C28.1339 1.10888 27.4157 1.20563 26.7239 1.40415C26.1166 1.57954 25.5609 1.89329 25.1025 2.31949C24.6319 2.77133 24.2779 3.32566 24.0697 3.9369C23.8158 4.70422 23.6958 5.50771 23.7148 6.31381V6.69766C23.7148 7.94107 23.9144 8.94388 24.3136 9.70611C24.6764 10.4312 25.2815 11.0144 26.0293 11.3596C26.8636 11.7197 27.7696 11.8945 28.6817 11.8714C29.8031 11.8714 30.7001 11.7221 31.3729 11.4236C32.0133 11.1514 32.5299 10.6609 32.8262 10.044C33.1255 9.42287 33.2752 8.63658 33.2752 7.68516V7.37514H28.4193V6.27772H34.5872V12.7687H33.541L33.3728 11.0495C33.0742 11.512 32.6657 11.8974 32.1819 12.1732C31.6789 12.4634 31.1315 12.6733 30.5605 12.7949C29.9686 12.924 29.3639 12.9889 28.7574 12.9885Z" fill="white"/>
<path d="M40.7559 12.7703V0.228027H42.2696V12.7703H40.7559Z" fill="white"/>
<path d="M51.6374 12.7703V1.6896H47.1953V0.228027H57.8238V1.6896H53.3631V12.7703H51.6374Z" fill="white"/>
<path d="M60.1992 12.7703L65.2603 0.228027H67.7732L72.8545 12.7703H70.7537L69.5544 9.77011H63.3681L62.1907 12.7687L60.1992 12.7703ZM64.0055 8.16254H68.9169L67.4166 4.34046C67.3661 4.23055 67.3073 4.08127 67.2383 3.89263L67.0045 3.25289C66.9171 3.01503 66.8363 2.77553 66.7522 2.53112C66.6681 2.2867 66.584 2.06197 66.5167 1.85364H66.4041L66.1047 2.69515L65.7683 3.61869C65.6617 3.91724 65.5709 4.15783 65.4958 4.34046L64.0055 8.16254Z" fill="white"/>
<path d="M77.3359 12.7703V0.228027H79.4922V10.9413H85.9224V12.7703H77.3359Z" fill="white"/>
<path d="M90.5723 12.7704V0.228066H92.9725V5.34112H99.0276V0.223145H101.428V12.7654H99.0276V7.35223H92.9725V12.7654L90.5723 12.7704Z" fill="white"/>
<path d="M112.865 12.9884C111.52 12.9884 110.354 12.7538 109.368 12.2846C108.395 11.8235 107.603 11.0664 107.109 10.1275C106.585 9.15866 106.322 7.94861 106.322 6.49742C106.322 5.02436 106.585 3.80884 107.109 2.85086C107.609 1.92231 108.4 1.17474 109.368 0.718372C110.349 0.249224 111.515 0.0146484 112.865 0.0146484C114.24 0.0146484 115.417 0.249224 116.397 0.718372C117.362 1.17655 118.15 1.92387 118.648 2.85086C119.173 3.80665 119.435 5.02217 119.435 6.49742C119.435 7.9497 119.173 9.15975 118.648 10.1275C118.156 11.0648 117.367 11.8216 116.397 12.2846C115.418 12.7538 114.241 12.9884 112.865 12.9884ZM112.865 10.8559C113.427 10.8658 113.986 10.7763 114.515 10.5918C114.973 10.4256 115.384 10.1557 115.714 9.80443C116.053 9.43503 116.305 8.99852 116.455 8.52492C116.633 7.95366 116.719 7.35865 116.709 6.76152V6.2694C116.718 5.66854 116.633 5.06985 116.455 4.49452C116.307 4.01797 116.054 3.57855 115.714 3.20682C115.384 2.85551 114.973 2.58566 114.515 2.41944C113.445 2.06728 112.286 2.06728 111.215 2.41944C110.759 2.58413 110.35 2.85431 110.024 3.20682C109.691 3.57972 109.444 4.01919 109.303 4.49452C109.131 5.07092 109.049 5.66921 109.059 6.2694V6.76152C109.048 7.35797 109.13 7.95256 109.303 8.52492C109.445 8.99733 109.692 9.43389 110.024 9.80443C110.35 10.1569 110.759 10.4271 111.215 10.5918C111.745 10.7744 112.304 10.8617 112.865 10.8493V10.8559Z" fill="white"/>
<path d="M129.999 12.9887C128.799 12.9887 127.771 12.806 126.916 12.4408C126.094 12.1053 125.404 11.5225 124.946 10.7774C124.49 10.0349 124.262 9.10864 124.262 7.99865V0.208496H127.227V7.91828C127.227 8.7844 127.465 9.45805 127.94 9.93922C128.416 10.4204 129.097 10.661 129.984 10.661C130.881 10.661 131.572 10.4204 132.056 9.93922C132.54 9.45805 132.781 8.7844 132.778 7.91828V0.208496H135.758V7.99865C135.758 9.10755 135.527 10.0338 135.063 10.7774C134.6 11.5208 133.909 12.1028 133.087 12.4408C132.229 12.8071 131.2 12.9897 129.999 12.9887Z" fill="white"/>
<path d="M146.477 12.9887C145.709 12.9934 144.943 12.923 144.189 12.7787C143.526 12.6563 142.889 12.4244 142.305 12.093C141.775 11.7898 141.333 11.3588 141.022 10.8414C140.692 10.2572 140.53 9.59699 140.553 8.93042V8.76638C140.551 8.71708 140.558 8.66787 140.571 8.62038H143.816C143.815 8.66592 143.812 8.71138 143.806 8.75654C143.8 8.80224 143.796 8.84824 143.796 8.89432C143.779 9.23428 143.889 9.5686 144.105 9.83591C144.337 10.0884 144.641 10.2668 144.978 10.3477C145.406 10.4606 145.847 10.5158 146.29 10.5117C146.547 10.5123 146.803 10.4997 147.059 10.474C147.275 10.4535 147.489 10.4106 147.696 10.346C147.874 10.292 148.044 10.2153 148.201 10.118C148.334 10.0369 148.444 9.92403 148.52 9.78997C148.591 9.65086 148.626 9.49728 148.623 9.34215C148.625 9.20914 148.596 9.07747 148.537 8.95721C148.479 8.83695 148.393 8.73127 148.287 8.64827C148.025 8.44223 147.726 8.28688 147.405 8.1906C147.036 8.06922 146.621 7.9533 146.159 7.84284C145.696 7.73294 145.215 7.61811 144.716 7.49509C144.224 7.37626 143.741 7.22387 143.271 7.03906C142.824 6.86461 142.405 6.63054 142.025 6.34354C141.654 6.06143 141.353 5.70219 141.143 5.29206C140.75 4.53242 140.665 3.65634 140.905 2.83831C141.145 2.02027 141.692 1.3203 142.437 0.877803C142.978 0.559344 143.57 0.333536 144.189 0.210167C144.886 0.0662213 145.596 -0.00417348 146.309 0.000199385C147.006 -0.00434637 147.701 0.0688504 148.381 0.218367C148.988 0.351256 149.567 0.583074 150.095 0.904049C150.598 1.20073 151.012 1.62157 151.295 2.12413C151.578 2.62669 151.721 3.19319 151.708 3.76651V3.98467H148.483V3.85673C148.488 3.59222 148.406 3.33323 148.25 3.11691C148.069 2.88587 147.825 2.70863 147.547 2.60512C147.176 2.46725 146.781 2.40203 146.384 2.4132C145.988 2.40495 145.592 2.44797 145.207 2.54114C144.936 2.60217 144.684 2.72785 144.475 2.90694C144.395 2.9788 144.331 3.0663 144.288 3.16379C144.244 3.26128 144.222 3.36658 144.223 3.47287C144.222 3.60038 144.252 3.72633 144.31 3.84039C144.369 3.95444 144.454 4.05335 144.559 4.12902C144.827 4.32469 145.129 4.47295 145.449 4.56701C145.825 4.6884 146.244 4.80104 146.706 4.90493C147.168 5.00991 147.646 5.11818 148.14 5.23301C148.627 5.34776 149.106 5.49408 149.573 5.67099C150.022 5.84064 150.444 6.06853 150.83 6.34846C151.2 6.61779 151.505 6.96406 151.721 7.36221C151.955 7.81569 152.07 8.31817 152.058 8.82543C152.058 9.82387 151.817 10.6282 151.336 11.2384C150.826 11.8678 150.133 12.333 149.348 12.5737C148.421 12.8656 147.451 13.0058 146.477 12.9887Z" fill="white"/>
<path d="M156.863 12.7705V0.19043H167.869V3.07913H160.764V5.00001H167.12V7.77881H160.764V9.88178H167.996V12.7705H156.863Z" fill="white"/>
<path d="M5.89872 12.7554H0V0.229492H5.89872C7.24773 0.230795 8.54111 0.754011 9.49501 1.68431C10.4489 2.61461 10.9854 3.876 10.9867 5.19164V7.80148C10.9832 9.1157 10.4457 10.375 9.49204 11.3035C8.53838 12.232 7.24628 12.7541 5.89872 12.7554ZM1.02097 11.7613H5.89872C6.97595 11.76 8.0088 11.3427 8.7713 10.6006C9.53381 9.85849 9.9639 8.85205 9.9674 7.80148V5.19164C9.9661 4.13964 9.53701 3.13109 8.77427 2.38722C8.01153 1.64334 6.9774 1.22486 5.89872 1.22356H1.02097V11.7613Z" fill="white"/>
</svg>
